<svg xmlns="http://www.w3.org/2000/svg" width="18.521" height="23.844" viewBox="0 0 18.521 23.844">
  <g id="Group_30" data-name="Group 30" transform="translate(-14.5 -4.474)">
    <path id="Path_55" data-name="Path 55" d="M26.382,17.057a2.789,2.789,0,0,1-1.142.029,5.34,5.34,0,0,1-1.443-.442,4.172,4.172,0,0,1,2.082.118,2.259,2.259,0,0,1,.5.3m-4.762-.8-.1.029c-.23.064-.453.127-.668.183l-.29.076c-.584.152-1.181.307-1.771.492.224-.556.432-1.118.636-1.667.151-.407.305-.822.465-1.232q.121.206.253.413a7.961,7.961,0,0,0,1.479,1.708M20.135,9.984a5.309,5.309,0,0,1-.317,1.978,3.251,3.251,0,0,1-.056-2.344,1.355,1.355,0,0,1,.2-.324,1.553,1.553,0,0,1,.177.69m-3.049,8.687c-.146.269-.3.52-.448.758-.369.572-.972,1.184-1.282,1.184a.151.151,0,0,1-.121-.064.121.121,0,0,1-.039-.1,1.876,1.876,0,0,1,.674-.931,6.62,6.62,0,0,1,1.217-.845m10.284-1.585c-.047-.7-1.193-1.149-1.2-1.153a4.234,4.234,0,0,0-1.471-.24,8.588,8.588,0,0,0-2.028.282,7.167,7.167,0,0,1-1.81-1.913c-.206-.322-.39-.643-.552-.957a7.263,7.263,0,0,0,.683-3.171c-.052-.934-.461-1.561-1.018-1.561-.382,0-.711.291-.978.865a4.614,4.614,0,0,0,.373,3.9c-.261.63-.5,1.283-.738,1.915-.292.786-.593,1.6-.932,2.369a8.181,8.181,0,0,0-2.382,1.431,2.538,2.538,0,0,0-.97,1.553,1.009,1.009,0,0,0,.272.75.992.992,0,0,0,.741.337c.93,0,1.824-1.313,1.994-1.576a14.384,14.384,0,0,0,.975-1.8,25.373,25.373,0,0,1,2.445-.724l.292-.076c.219-.057.447-.121.681-.187s.5-.14.761-.208a6.624,6.624,0,0,0,2.614,1.035,3.062,3.062,0,0,0,1.84-.192.7.7,0,0,0,.413-.677m1.8,6.019a1.27,1.27,0,0,1-1.321,1.364H13.671a1.281,1.281,0,0,1-1.32-1.364V3.74a1.27,1.27,0,0,1,1.32-1.364h9.577l.005.005V6.224a2.128,2.128,0,0,0,2.171,2.231h3.713l.032.033Zm-.88-15.526H25.425a1.275,1.275,0,0,1-1.319-1.355V3.26ZM30.021,23.1V8.126L24.106,2.019V1.991h-.028L23.6,1.5H13.671A2.122,2.122,0,0,0,11.5,3.74V23.105a2.133,2.133,0,0,0,2.171,2.239H27.85a2.122,2.122,0,0,0,2.171-2.24" transform="translate(3 2.974)" fill="#d60018"/>
  </g>
</svg>
