<svg xmlns="http://www.w3.org/2000/svg" width="67.176" height="67.176" viewBox="0 0 67.176 67.176">
  <g id="Group_7" data-name="Group 7" transform="translate(-3.125 -3.125)">
    <path id="Path_43" data-name="Path 43" d="M36.713,3.125A33.588,33.588,0,1,0,70.3,36.713,33.687,33.687,0,0,0,36.713,3.125Zm0,64.937A31.349,31.349,0,1,1,68.062,36.713,31.441,31.441,0,0,1,36.713,68.062Z" fill="#fff"/>
    <path id="Path_44" data-name="Path 44" d="M64.271,43.29l-29-16.794a1.019,1.019,0,0,0-1.12,0,1.177,1.177,0,0,0-.56,1.008V61.092a1.175,1.175,0,0,0,.56,1.007,1.459,1.459,0,0,0,1.12,0L64.383,45.3a1.176,1.176,0,0,0,.56-1.007A1.076,1.076,0,0,0,64.271,43.29ZM35.833,59.076V29.407L61.584,44.3Z" transform="translate(-8.637 -6.577)" fill="#fff"/>
  </g>
</svg>
