<svg xmlns="http://www.w3.org/2000/svg" viewBox="0 0 214.7 55.4"><title>Artboard 2</title><polygon points="136.4 47.4 136.4 14.6 128.7 14.6 128.7 55.4 136.4 55.4 177.1 14.6 169.3 14.6 136.4 47.4" fill="#bf2c34"/><polygon points="214.6 14.6 214.6 10.1 184 10.1 184 51.2 214.6 51.2 214.6 46.7 191.6 46.7 191.6 32.6 214.6 32.6 214.6 28.7 191.6 28.7 191.6 14.6 214.6 14.6" fill="#bf2c34"/><path d="M73.3,40.9h7.8L92.5,29.4h21.6V40.9h7.8V0h-7.7ZM114.2,25H96.7L114.2,7.6Z" fill="#bf2c34"/><path d="M73.3,47.5h.9v7.9h-.9Z" fill="#222"/><path d="M78.8,47.5h.8l5,6.3V47.5h.9v7.9h-.7l-5.1-6.5v6.5h-.9Z" fill="#222"/><path d="M89.5,54.2l.6-.7a3.86,3.86,0,0,0,2.7,1.1c1.1,0,1.8-.6,1.8-1.3h0c0-.7-.4-1.2-2.1-1.5s-2.7-1-2.7-2.3h0a2.4,2.4,0,0,1,2.6-2.2,3.86,3.86,0,0,1,2.8,1l-.5.7a3.52,3.52,0,0,0-2.3-.9c-1,0-1.7.6-1.7,1.3h0c0,.7.4,1.2,2.1,1.5s2.6,1,2.6,2.2h0c0,1.4-1.1,2.2-2.7,2.2A3.48,3.48,0,0,1,89.5,54.2Z" fill="#222"/><path d="M99.5,47.5h.9v7.9h-.9Z" fill="#222"/><path d="M105,47.5h2.7a3.92,3.92,0,0,1,4.2,3.9h0a4,4,0,0,1-4.2,4H105Zm.9.8v6.3h1.9a3.1,3.1,0,0,0,3.3-3.1h0a3,3,0,0,0-3.3-3.1h-1.9Z" fill="#222"/><path d="M116.1,47.5h5.7v.8H117V51h4.3v.8H117v2.8h4.9v.8h-5.8V47.5Z" fill="#222"/><rect x="37" y="16.3" width="6.5" height="4.3" transform="translate(-1.39 33.5) rotate(-44.49)" fill="#99c455"/><polygon points="81.8 14.6 48.5 47.7 48.5 14.6 41 14.6 7.5 47.6 7.5 14.6 0 14.6 0 55.4 7.5 55.4 40.9 22.3 40.9 55.4 48.5 55.4 89.6 14.6 81.8 14.6" fill="#bf2c34"/></svg>