<svg xmlns="http://www.w3.org/2000/svg" xmlns:xlink="http://www.w3.org/1999/xlink" viewBox="0 0 214.7 83.3"><defs><linearGradient id="a" y1="32.15" x2="214.6" y2="32.15" gradientTransform="matrix(1, 0, 0, -1, 0, 98)" gradientUnits="userSpaceOnUse"><stop offset="0.06" stop-color="#222"/><stop offset="1" stop-color="#fff"/></linearGradient></defs><title>Artboard 1</title><polygon points="136.4 47.4 136.4 14.6 128.7 14.6 128.7 55.4 136.4 55.4 177.1 14.6 169.3 14.6 136.4 47.4" fill="#bf2c34"/><polygon points="214.6 14.6 214.6 10.1 184 10.1 184 51.2 214.6 51.2 214.6 46.7 191.6 46.7 191.6 32.6 214.6 32.6 214.6 28.7 191.6 28.7 191.6 14.6 214.6 14.6" fill="#bf2c34"/><path d="M73.3,40.9h7.8L92.5,29.4h21.6V40.9h7.8V0h-7.7ZM114.2,25H96.7L114.2,7.6Z" fill="#bf2c34"/><path d="M73.3,47.5h.9v7.9h-.9Z" fill="#222"/><path d="M78.8,47.5h.8l5,6.3V47.5h.9v7.9h-.7l-5.1-6.5v6.5h-.9Z" fill="#222"/><path d="M89.5,54.2l.6-.7a3.86,3.86,0,0,0,2.7,1.1c1.1,0,1.8-.6,1.8-1.3h0c0-.7-.4-1.2-2.1-1.5s-2.7-1-2.7-2.3h0a2.4,2.4,0,0,1,2.6-2.2,3.86,3.86,0,0,1,2.8,1l-.5.7a3.52,3.52,0,0,0-2.3-.9c-1,0-1.7.6-1.7,1.3h0c0,.7.4,1.2,2.1,1.5s2.6,1,2.6,2.2h0c0,1.4-1.1,2.2-2.7,2.2A3.48,3.48,0,0,1,89.5,54.2Z" fill="#222"/><path d="M99.5,47.5h.9v7.9h-.9Z" fill="#222"/><path d="M105,47.5h2.7a3.92,3.92,0,0,1,4.2,3.9h0a4,4,0,0,1-4.2,4H105Zm.9.8v6.3h1.9a3.1,3.1,0,0,0,3.3-3.1h0a3,3,0,0,0-3.3-3.1h-1.9Z" fill="#222"/><path d="M116.1,47.5h5.7v.8H117V51h4.3v.8H117v2.8h4.9v.8h-5.8V47.5Z" fill="#222"/><path d="M.1,79.7h0a3.39,3.39,0,0,1,3.4-3.5,3.53,3.53,0,0,1,2.7,1.1l-.5.6A3.12,3.12,0,0,0,3.6,77,2.63,2.63,0,0,0,1,79.8H1a2.63,2.63,0,0,0,2.6,2.8,3.21,3.21,0,0,0,2.2-1l.5.5a3.61,3.61,0,0,1-2.7,1.2A3.56,3.56,0,0,1,.1,79.7Z" fill="#bf2c34"/><path d="M7.7,76.3h2.9a2.74,2.74,0,0,1,1.9.7,1.9,1.9,0,0,1,.5,1.3h0a2,2,0,0,1-1.8,2l2.1,2.8h-.9l-2-2.6H8.5v2.6H7.7Zm2.9,3.5c1,0,1.8-.5,1.8-1.4h0c0-.8-.6-1.3-1.7-1.3H8.6v2.8h2Z" fill="#bf2c34"/><path d="M14.8,76.3h4.9V77H15.5v2.3h3.7V80H15.5v2.4h4.2v.7h-5V76.3Z" fill="#bf2c34"/><path d="M24,76.3h.7l3.1,6.9H27l-.8-1.8H22.5l-.8,1.8h-.8Zm1.9,4.3-1.5-3.5-1.6,3.5Z" fill="#bf2c34"/><path d="M30.2,77H27.9v-.7h5.3V77H30.9v6.1h-.7Z" fill="#bf2c34"/><path d="M34,79.7h0a3.5,3.5,0,0,1,7,0h0a3.5,3.5,0,0,1-7,0Zm6.1,0h0a2.7,2.7,0,1,0-5.4,0h0a2.71,2.71,0,0,0,2.7,2.8A2.65,2.65,0,0,0,40.1,79.7Z" fill="#bf2c34"/><path d="M42.6,76.3h2.9a2.74,2.74,0,0,1,1.9.7,1.9,1.9,0,0,1,.5,1.3h0a2,2,0,0,1-1.8,2l2.1,2.8h-.9l-2-2.6H43.4v2.6h-.8Zm2.9,3.5c1,0,1.8-.5,1.8-1.4h0c0-.8-.6-1.3-1.7-1.3H43.5v2.8h2Z" fill="#bf2c34"/><path d="M52.5,79.7h0a3.5,3.5,0,0,1,7,0h0a3.5,3.5,0,0,1-7,0Zm6.1,0h0a2.7,2.7,0,1,0-5.4,0h0a2.71,2.71,0,0,0,2.7,2.8A2.65,2.65,0,0,0,58.6,79.7Z" fill="#bf2c34"/><path d="M61.1,76.3H66V77H61.9v2.4h3.7v.7H61.9v3h-.8Z" fill="#bf2c34"/><path d="M70.6,76.3h4.9V77H71.3v2.3H75V80H71.3v2.4h4.2v.7h-5V76.3Z" fill="#bf2c34"/><path d="M77.2,76.3h4.9V77H78v2.4h3.7v.7H78v3h-.8Z" fill="#bf2c34"/><path d="M83.7,76.3h4.9V77H84.5v2.4h3.7v.7H84.5v3h-.8V76.3Z" fill="#bf2c34"/><path d="M90.2,76.3H91v6.8h-.8Z" fill="#bf2c34"/><path d="M92.8,79.7h0a3.39,3.39,0,0,1,3.4-3.5,3.53,3.53,0,0,1,2.7,1.1l-.5.6a3.12,3.12,0,0,0-2.1-.9,2.63,2.63,0,0,0-2.6,2.8h0a2.63,2.63,0,0,0,2.6,2.8,3.21,3.21,0,0,0,2.2-1l.5.5a3.61,3.61,0,0,1-2.7,1.2A3.5,3.5,0,0,1,92.8,79.7Z" fill="#bf2c34"/><path d="M100.4,76.3h.8v6.8h-.8Z" fill="#bf2c34"/><path d="M103.3,76.3h4.9V77H104v2.3h3.7V80H104v2.4h4.2v.7h-5V76.3Z" fill="#bf2c34"/><path d="M109.9,76.3h.7l4.3,5.5V76.3h.7v6.8H115l-4.4-5.6v5.6h-.7Z" fill="#bf2c34"/><path d="M119.5,77h-2.3v-.7h5.3V77h-2.3v6.1h-.8V77Z" fill="#bf2c34"/><path d="M127.1,76.3h.8l2.5,3.7,2.5-3.7h.8v6.8h-.8V77.6l-2.5,3.6h0l-2.5-3.6v5.5h-.7V76.3Z" fill="#bf2c34"/><path d="M135.6,76.3h4.9V77h-4.2v2.3H140V80h-3.7v2.4h4.2v.7h-5V76.3Z" fill="#bf2c34"/><path d="M142.2,76.3h4.9V77h-4.2v2.3h3.7V80h-3.7v2.4h4.2v.7h-5V76.3Z" fill="#bf2c34"/><path d="M150.6,77h-2.3v-.7h5.3V77h-2.3v6.1h-.8V77Z" fill="#bf2c34"/><path d="M155.3,76.3h.8v6.8h-.8Z" fill="#bf2c34"/><path d="M158.2,76.3h.7l4.3,5.5V76.3h.7v6.8h-.6l-4.4-5.6v5.6h-.7Z" fill="#bf2c34"/><path d="M165.6,79.7h0a3.39,3.39,0,0,1,3.4-3.5,3.33,3.33,0,0,1,2.5.9l-.5.6a2.75,2.75,0,0,0-4.7,2h0a2.6,2.6,0,0,0,2.7,2.8,3.22,3.22,0,0,0,2-.7V80.1h-2.1v-.7h2.8v2.7a3.88,3.88,0,0,1-2.7,1A3.2,3.2,0,0,1,165.6,79.7Z" fill="#bf2c34"/><path d="M176.2,82.1l.5-.6a3.45,3.45,0,0,0,2.3,1c.9,0,1.5-.5,1.5-1.2h0c0-.6-.3-1-1.8-1.3s-2.3-.8-2.3-2h0a2,2,0,0,1,2.2-1.9,3.85,3.85,0,0,1,2.4.8l-.4.6a3.06,3.06,0,0,0-2-.7c-.9,0-1.4.5-1.4,1.1h0c0,.6.3,1,1.8,1.3s2.2.9,2.2,1.9h0c0,1.2-1,1.9-2.3,1.9A3.11,3.11,0,0,1,176.2,82.1Z" fill="#bf2c34"/><path d="M183,76.3h2.5c1.5,0,2.5.8,2.5,2.2h0c0,1.5-1.2,2.2-2.7,2.2h-1.7v2.4h-.8V76.3Zm2.4,3.7c1.1,0,1.9-.6,1.9-1.5h0c0-1-.7-1.5-1.8-1.5h-1.7v3Z" fill="#bf2c34"/><path d="M191.4,76.3h.7l3.1,6.9h-.8l-.8-1.8h-3.7l-.8,1.8h-.8Zm1.9,4.3-1.5-3.5-1.6,3.5Z" fill="#bf2c34"/><path d="M196,79.7h0a3.39,3.39,0,0,1,3.4-3.5,3.53,3.53,0,0,1,2.7,1.1l-.5.6a3.12,3.12,0,0,0-2.1-.9,2.63,2.63,0,0,0-2.6,2.8h0a2.63,2.63,0,0,0,2.6,2.8,3.21,3.21,0,0,0,2.2-1l.5.5a3.61,3.61,0,0,1-2.7,1.2A3.5,3.5,0,0,1,196,79.7Z" fill="#bf2c34"/><path d="M203.5,76.3h4.9V77h-4.2v2.3h3.7V80h-3.7v2.4h4.2v.7h-5V76.3Z" fill="#bf2c34"/><path d="M209.7,82.1l.5-.6a3.45,3.45,0,0,0,2.3,1c.9,0,1.5-.5,1.5-1.2h0c0-.6-.3-1-1.8-1.3s-2.3-.8-2.3-2h0a2,2,0,0,1,2.2-1.9,3.85,3.85,0,0,1,2.4.8l-.4.6a3.06,3.06,0,0,0-2-.7c-.9,0-1.4.5-1.4,1.1h0c0,.6.4,1,1.8,1.3s2.2.9,2.2,1.9h0c0,1.2-1,1.9-2.3,1.9A3.11,3.11,0,0,1,209.7,82.1Z" fill="#bf2c34"/><rect y="65.4" width="214.6" height="0.9" fill="url(#a)"/><rect x="37" y="16.3" width="6.5" height="4.3" transform="translate(-1.39 33.5) rotate(-44.49)" fill="#99c455"/><polygon points="81.8 14.6 48.5 47.7 48.5 14.6 41 14.6 7.5 47.6 7.5 14.6 0 14.6 0 55.4 7.5 55.4 40.9 22.3 40.9 55.4 48.5 55.4 89.6 14.6 81.8 14.6" fill="#bf2c34"/></svg>