<svg xmlns="http://www.w3.org/2000/svg" width="28.637" height="19.825" viewBox="0 0 28.637 19.825">
  <path id="Path_49" data-name="Path 49" d="M41.291,27.5H22.346A4.846,4.846,0,0,0,17.5,32.346V42.479a4.846,4.846,0,0,0,4.846,4.846H41.291a4.846,4.846,0,0,0,4.846-4.846V32.346A4.846,4.846,0,0,0,41.291,27.5ZM37.427,37.607l-8.591,4.406a.22.22,0,0,1-.3-.094.223.223,0,0,1-.025-.1V33.007a.22.22,0,0,1,.222-.219.223.223,0,0,1,.1.025l8.591,4.406a.22.22,0,0,1,.1.3.223.223,0,0,1-.1.1Z" transform="translate(-17.5 -27.5)"/>
</svg>
